<svg xmlns="http://www.w3.org/2000/svg" width="442.961" height="53.789" viewBox="0 0 442.961 53.789">
  <g id="Group_69" data-name="Group 69" transform="translate(-1420.103 -2778.442)">
    <path id="Path_11" data-name="Path 11" d="M58.592,27.1a10.554,10.554,0,0,0-16.31-5.218,10.547,10.547,0,1,0-20.005,0A10.547,10.547,0,1,0,16.1,40.907a10.547,10.547,0,1,0,16.18,11.75,10.547,10.547,0,1,0,16.179-11.75A10.554,10.554,0,0,0,58.592,27.1Z" transform="translate(1415.54 2771.315)" fill="none"/>
    <g id="Group_53" data-name="Group 53" transform="translate(1441.909 2789.844)">
      <line id="Line_1" data-name="Line 1" y2="16.411" transform="translate(5.851)" fill="none" stroke="#1c1c1c" stroke-miterlimit="10" stroke-width="1.282"/>
      <line id="Line_2" data-name="Line 2" x2="5.613" y2="15.421" transform="translate(0 1.053)" fill="none" stroke="#1c1c1c" stroke-miterlimit="10" stroke-width="1.282"/>
      <line id="Line_3" data-name="Line 3" x1="5.613" y2="15.422" transform="translate(6.097 1.012)" fill="none" stroke="#1c1c1c" stroke-miterlimit="10" stroke-width="1.282"/>
    </g>
    <g id="Group_54" data-name="Group 54" transform="translate(1440.348 2788.228)">
      <ellipse id="Ellipse_1" data-name="Ellipse 1" cx="1.616" cy="1.616" rx="1.616" ry="1.616" transform="translate(5.855)" fill="#b49f68" stroke="#191919" stroke-miterlimit="10" stroke-width="1.282"/>
      <ellipse id="Ellipse_2" data-name="Ellipse 2" cx="1.616" cy="1.616" rx="1.616" ry="1.616" transform="translate(11.71 1.032)" fill="#b49f68" stroke="#191919" stroke-miterlimit="10" stroke-width="1.282"/>
      <ellipse id="Ellipse_3" data-name="Ellipse 3" cx="1.616" cy="1.616" rx="1.616" ry="1.616" transform="translate(0 1.032)" fill="#b49f68" stroke="#191919" stroke-miterlimit="10" stroke-width="1.282"/>
    </g>
    <g id="Group_55" data-name="Group 55" transform="translate(1430.712 2796.47)">
      <line id="Line_4" data-name="Line 4" x2="15.609" y2="5.071" transform="translate(0.807 5.26)" fill="none" stroke="#1c1c1c" stroke-miterlimit="10" stroke-width="1.282"/>
      <line id="Line_5" data-name="Line 5" y1="0.573" x2="16.401" transform="translate(0 10.578)" fill="none" stroke="#1c1c1c" stroke-miterlimit="10" stroke-width="1.282"/>
      <line id="Line_6" data-name="Line 6" x2="12.932" y2="10.104" transform="translate(3.58)" fill="none" stroke="#1c1c1c" stroke-miterlimit="10" stroke-width="1.282"/>
    </g>
    <g id="Group_56" data-name="Group 56" transform="translate(1429.094 2794.808)">
      <ellipse id="Ellipse_4" data-name="Ellipse 4" cx="1.616" cy="1.616" rx="1.616" ry="1.616" transform="translate(0.828 5.249)" fill="#b49f68" stroke="#1c1c1c" stroke-miterlimit="10" stroke-width="1.282"/>
      <ellipse id="Ellipse_5" data-name="Ellipse 5" cx="1.616" cy="1.616" rx="1.616" ry="1.616" transform="translate(3.619)" fill="#b49f68" stroke="#1c1c1c" stroke-miterlimit="10" stroke-width="1.282"/>
      <ellipse id="Ellipse_6" data-name="Ellipse 6" cx="1.616" cy="1.616" rx="1.616" ry="1.616" transform="translate(0 11.137)" fill="#b49f68" stroke="#1c1c1c" stroke-miterlimit="10" stroke-width="1.282"/>
    </g>
    <g id="Group_57" data-name="Group 57" transform="translate(1433.66 2807.409)">
      <line id="Line_7" data-name="Line 7" y1="13.277" x2="9.646" transform="translate(4.145 0.163)" fill="none" stroke="#1c1c1c" stroke-miterlimit="10" stroke-width="1.282"/>
      <line id="Line_8" data-name="Line 8" y1="15.776" x2="4.523" transform="translate(9.499 0.251)" fill="none" stroke="#1c1c1c" stroke-miterlimit="10" stroke-width="1.282"/>
      <line id="Line_9" data-name="Line 9" y1="9.177" x2="13.606" fill="none" stroke="#1c1c1c" stroke-miterlimit="10" stroke-width="1.282"/>
    </g>
    <g id="Group_58" data-name="Group 58" transform="translate(1432.01 2814.921)">
      <ellipse id="Ellipse_7" data-name="Ellipse 7" cx="1.616" cy="1.616" rx="1.616" ry="1.616" transform="translate(4.13 4.278)" fill="#b49f68" stroke="#1c1c1c" stroke-miterlimit="10" stroke-width="1.282"/>
      <ellipse id="Ellipse_8" data-name="Ellipse 8" cx="1.616" cy="1.616" rx="1.616" ry="1.616" fill="#b49f68" stroke="#1c1c1c" stroke-miterlimit="10" stroke-width="1.282"/>
      <ellipse id="Ellipse_9" data-name="Ellipse 9" cx="1.616" cy="1.616" rx="1.616" ry="1.616" transform="translate(9.474 6.883)" fill="#b49f68" stroke="#1c1c1c" stroke-miterlimit="10" stroke-width="1.282"/>
    </g>
    <g id="Group_59" data-name="Group 59" transform="translate(1448.071 2807.312)">
      <line id="Line_10" data-name="Line 10" x1="9.646" y1="13.277" transform="translate(0.213 0.191)" fill="none" stroke="#1c1c1c" stroke-miterlimit="10" stroke-width="1.282"/>
      <line id="Line_11" data-name="Line 11" x1="13.606" y1="9.177" transform="translate(0.368)" fill="none" stroke="#1c1c1c" stroke-miterlimit="10" stroke-width="1.282"/>
      <line id="Line_12" data-name="Line 12" x1="4.524" y1="15.775" transform="translate(0 0.318)" fill="none" stroke="#1c1c1c" stroke-miterlimit="10" stroke-width="1.282"/>
    </g>
    <g id="Group_60" data-name="Group 60" transform="translate(1450.922 2814.921)">
      <ellipse id="Ellipse_10" data-name="Ellipse 10" cx="1.616" cy="1.616" rx="1.616" ry="1.616" transform="translate(5.344 4.277)" fill="#b49f68" stroke="#1c1c1c" stroke-miterlimit="10" stroke-width="1.282"/>
      <path id="Path_2" data-name="Path 2" d="M113.888,163.942a1.617,1.617,0,1,1,2,1.108A1.616,1.616,0,0,1,113.888,163.942Z" transform="translate(-113.825 -154.996)" fill="#b49f68" stroke="#1c1c1c" stroke-miterlimit="10" stroke-width="1.282"/>
      <ellipse id="Ellipse_11" data-name="Ellipse 11" cx="1.616" cy="1.616" rx="1.616" ry="1.616" transform="translate(9.474)" fill="#b49f68" stroke="#1c1c1c" stroke-miterlimit="10" stroke-width="1.282"/>
    </g>
    <g id="Group_61" data-name="Group 61" transform="translate(1448.341 2796.377)">
      <line id="Line_13" data-name="Line 13" x1="15.609" y2="5.071" transform="translate(0.133 5.241)" fill="none" stroke="#1c1c1c" stroke-miterlimit="10" stroke-width="1.282"/>
      <line id="Line_14" data-name="Line 14" x1="12.932" y2="10.104" fill="none" stroke="#1c1c1c" stroke-miterlimit="10" stroke-width="1.282"/>
      <line id="Line_15" data-name="Line 15" x1="16.402" y1="0.573" transform="translate(0.188 10.553)" fill="none" stroke="#1c1c1c" stroke-miterlimit="10" stroke-width="1.282"/>
    </g>
    <g id="Group_62" data-name="Group 62" transform="translate(1459.693 2794.808)">
      <ellipse id="Ellipse_12" data-name="Ellipse 12" cx="1.616" cy="1.616" rx="1.616" ry="1.616" transform="translate(2.791 5.249)" fill="#b49f68" stroke="#1c1c1c" stroke-miterlimit="10" stroke-width="1.282"/>
      <path id="Path_3" data-name="Path 3" d="M160.244,107.691a1.616,1.616,0,1,1,1.672-1.559A1.616,1.616,0,0,1,160.244,107.691Z" transform="translate(-155.066 -93.322)" fill="#b49f68" stroke="#1c1c1c" stroke-miterlimit="10" stroke-width="1.282"/>
      <ellipse id="Ellipse_13" data-name="Ellipse 13" cx="1.616" cy="1.616" rx="1.616" ry="1.616" fill="#b49f68" stroke="#1c1c1c" stroke-miterlimit="10" stroke-width="1.282"/>
    </g>
    <g id="Group_63" data-name="Group 63" transform="translate(1431.635 2793.079)">
      <line id="Line_16" data-name="Line 16" x2="10.003" y2="13.768" transform="translate(6.182 0.117)" fill="none" stroke="#1c1c1c" stroke-miterlimit="10" stroke-width="1.282"/>
      <line id="Line_17" data-name="Line 17" y1="5.259" x2="16.185" transform="translate(0 13.885)" fill="none" stroke="#1c1c1c" stroke-miterlimit="10" stroke-width="1.282"/>
      <line id="Line_18" data-name="Line 18" y1="17.356" transform="translate(16.185 13.885)" fill="none" stroke="#1c1c1c" stroke-miterlimit="10" stroke-width="1.282"/>
      <line id="Line_19" data-name="Line 19" x1="16.429" y1="5.254" transform="translate(16.167 13.942)" fill="none" stroke="#1c1c1c" stroke-miterlimit="10" stroke-width="1.282"/>
      <line id="Line_20" data-name="Line 20" x1="9.994" y2="13.919" transform="translate(16.232)" fill="none" stroke="#1c1c1c" stroke-miterlimit="10" stroke-width="1.282"/>
    </g>
    <ellipse id="Ellipse_41" data-name="Ellipse 41" cx="5.47" cy="5.47" rx="5.47" ry="5.47" transform="translate(1442.349 2801.493)" fill="#b49f68" stroke="#1c1c1c" stroke-miterlimit="10" stroke-width="1.282"/>
    <g id="Group_68" data-name="Group 68">
      <path id="Path_14" data-name="Path 14" d="M1.76,0H6.6V-30.8H1.76ZM16.808-30.8H10.076V0H14.3V-21.78L17.908,0h4.576l3.344-22.088V0H30.4V-30.8H23.672l-3.3,21.868Zm24.244,0H33.924V0h4.84V-11.572h2.288c4.84,0,7.216-2.684,7.216-7.612v-4C48.268-28.116,45.892-30.8,41.052-30.8Zm0,4.4c1.54,0,2.376.7,2.376,2.9v4.62c0,2.2-.836,2.9-2.376,2.9H38.764V-26.4Zm14.52,0h8.36v-4.4h-13.2V0h13.2V-4.4h-8.36v-9.02h6.644v-4.4H55.572ZM81.972,0a9.071,9.071,0,0,1-.528-3.74V-8.492c0-3.212-.792-5.544-3.212-6.556C80.388-16.06,81.4-18.128,81.4-21.3v-2.42c0-4.752-2.156-7.084-7.172-7.084h-7.3V0h4.84V-12.54h1.672c2.2,0,3.168,1.056,3.168,3.916v4.84A9.472,9.472,0,0,0,77.044,0ZM74.1-26.4c1.716,0,2.464.968,2.464,3.168V-20.2c0,2.464-1.1,3.256-2.9,3.256H71.764V-26.4ZM84.612,0h4.84V-30.8h-4.84Zm19.1-30.8H96.624L91.7,0H96.14l.836-5.588h5.94L103.752,0h4.884Zm-3.784,5.456,2.332,15.576H97.592ZM110.88,0h12.8V-4.4H115.72V-30.8h-4.84Zm26.576-26.4h7.964v-4.4h-12.8V0h4.84V-12.716H143.7v-4.4h-6.248Zm20.46-4.4h-7.084L145.9,0h4.444l.836-5.588h5.94L157.96,0h4.884Zm-3.784,5.456,2.332,15.576H151.8ZM171.776-30.8h-6.732V0h4.224V-21.78L172.876,0h4.576L180.8-22.088V0h4.576V-30.8H178.64l-3.3,21.868ZM188.892,0h4.84V-30.8h-4.84Zm8.36,0h12.8V-4.4h-7.964V-30.8h-4.84Zm16.72,0h4.84V-10.208L224.928-30.8h-4.62l-3.7,14.036-3.7-14.036h-5.06l6.116,20.592Zm29.172-11.484v4.4c0,2.2-.968,2.992-2.508,2.992s-2.508-.792-2.508-2.992V-23.716c0-2.2.968-3.036,2.508-3.036s2.508.836,2.508,3.036v3.3h4.576v-2.992c0-4.928-2.464-7.744-7.216-7.744s-7.216,2.816-7.216,7.744V-7.392c0,4.928,2.464,7.744,7.216,7.744s7.216-2.816,7.216-7.744v-4.092Zm11.968-12.232c0-2.2.968-3.036,2.508-3.036s2.508.836,2.508,3.036V-7.084c0,2.2-.968,3.036-2.508,3.036s-2.508-.836-2.508-3.036Zm-4.84,16.324c0,4.928,2.6,7.744,7.348,7.744s7.348-2.816,7.348-7.744V-23.408c0-4.928-2.6-7.744-7.348-7.744s-7.348,2.816-7.348,7.744ZM274.78-30.8h-6.732V0h4.224V-21.78L275.88,0h4.576L283.8-22.088V0h4.576V-30.8h-6.732l-3.3,21.868Zm24.244,0H291.9V0h4.84V-11.572h2.288c4.84,0,7.216-2.684,7.216-7.612v-4C306.24-28.116,303.864-30.8,299.024-30.8Zm0,4.4c1.54,0,2.376.7,2.376,2.9v4.62c0,2.2-.836,2.9-2.376,2.9h-2.288V-26.4Zm19.844-4.4h-7.084L306.856,0H311.3l.836-5.588h5.94L318.912,0H323.8Zm-3.784,5.456,2.332,15.576h-4.664ZM336.38,0h4.972V-30.8H337.04v18.436L332.068-30.8H326V0h4.356V-22.308Zm8.448,0h4.84V-30.8h-4.84Zm13.2-26.4h8.36v-4.4h-13.2V0h13.2V-4.4h-8.36v-9.02h6.644v-4.4h-6.644Zm10.736,2.992c0,8.8,9.46,9.988,9.46,16.324,0,2.2-.968,2.992-2.508,2.992s-2.508-.792-2.508-2.992v-2.2h-4.576v1.892c0,4.928,2.464,7.744,7.216,7.744s7.216-2.816,7.216-7.744c0-8.8-9.46-9.988-9.46-16.324,0-2.2.88-3.036,2.42-3.036s2.42.836,2.42,3.036v1.276h4.576v-.968c0-4.928-2.42-7.744-7.128-7.744S368.764-28.336,368.764-23.408Z" transform="translate(1480 2822)" fill="#1c1c1c"/>
      <path id="Path_12" data-name="Path 12" d="M58.592,27.1a10.554,10.554,0,0,0-16.31-5.218,10.547,10.547,0,1,0-20.005,0A10.547,10.547,0,1,0,16.1,40.907a10.547,10.547,0,1,0,16.18,11.75,10.547,10.547,0,1,0,16.179-11.75A10.554,10.554,0,0,0,58.592,27.1Z" transform="translate(1415.54 2771.315)" fill="none" stroke="#191919" stroke-miterlimit="10" stroke-width="1.71"/>
    </g>
  </g>
</svg>
