<svg xmlns="http://www.w3.org/2000/svg" width="552.433" height="53.789" viewBox="0 0 552.433 53.789">
  <g id="Group_65" data-name="Group 65" transform="translate(-1317.103 -44.442)">
    <g id="Group_52" data-name="Group 52" transform="translate(1279 9)">
      <path id="Path_1" data-name="Path 1" d="M58.592,27.1a10.554,10.554,0,0,0-16.31-5.218,10.547,10.547,0,1,0-20.005,0A10.547,10.547,0,1,0,16.1,40.907a10.547,10.547,0,1,0,16.18,11.75,10.547,10.547,0,1,0,16.179-11.75A10.554,10.554,0,0,0,58.592,27.1Z" transform="translate(33.54 28.316)" fill="none"/>
      <g id="Group_1" data-name="Group 1" transform="translate(59.909 46.844)">
        <line id="Line_1" data-name="Line 1" y2="16.411" transform="translate(5.851)" fill="none" stroke="#b49f68" stroke-miterlimit="10" stroke-width="1.282"/>
        <line id="Line_2" data-name="Line 2" x2="5.613" y2="15.421" transform="translate(0 1.053)" fill="none" stroke="#b49f68" stroke-miterlimit="10" stroke-width="1.282"/>
        <line id="Line_3" data-name="Line 3" x1="5.613" y2="15.422" transform="translate(6.097 1.012)" fill="none" stroke="#b49f68" stroke-miterlimit="10" stroke-width="1.282"/>
      </g>
      <g id="Group_2" data-name="Group 2" transform="translate(58.348 45.228)">
        <ellipse id="Ellipse_1" data-name="Ellipse 1" cx="1.616" cy="1.616" rx="1.616" ry="1.616" transform="translate(5.855)" fill="#1b1b1b" stroke="#b49f68" stroke-miterlimit="10" stroke-width="1.282"/>
        <ellipse id="Ellipse_2" data-name="Ellipse 2" cx="1.616" cy="1.616" rx="1.616" ry="1.616" transform="translate(11.71 1.032)" fill="#1b1b1b" stroke="#b49f68" stroke-miterlimit="10" stroke-width="1.282"/>
        <ellipse id="Ellipse_3" data-name="Ellipse 3" cx="1.616" cy="1.616" rx="1.616" ry="1.616" transform="translate(0 1.032)" fill="#1b1b1b" stroke="#b49f68" stroke-miterlimit="10" stroke-width="1.282"/>
      </g>
      <g id="Group_3" data-name="Group 3" transform="translate(48.712 53.47)">
        <line id="Line_4" data-name="Line 4" x2="15.609" y2="5.071" transform="translate(0.807 5.26)" fill="none" stroke="#b49f68" stroke-miterlimit="10" stroke-width="1.282"/>
        <line id="Line_5" data-name="Line 5" y1="0.573" x2="16.401" transform="translate(0 10.578)" fill="none" stroke="#b49f68" stroke-miterlimit="10" stroke-width="1.282"/>
        <line id="Line_6" data-name="Line 6" x2="12.932" y2="10.104" transform="translate(3.58)" fill="none" stroke="#b49f68" stroke-miterlimit="10" stroke-width="1.282"/>
      </g>
      <g id="Group_4" data-name="Group 4" transform="translate(47.094 51.808)">
        <ellipse id="Ellipse_4" data-name="Ellipse 4" cx="1.616" cy="1.616" rx="1.616" ry="1.616" transform="translate(0.828 5.249)" fill="#1a1a1a" stroke="#b49f68" stroke-miterlimit="10" stroke-width="1.282"/>
        <ellipse id="Ellipse_5" data-name="Ellipse 5" cx="1.616" cy="1.616" rx="1.616" ry="1.616" transform="translate(3.619)" fill="#1a1a1a" stroke="#b49f68" stroke-miterlimit="10" stroke-width="1.282"/>
        <ellipse id="Ellipse_6" data-name="Ellipse 6" cx="1.616" cy="1.616" rx="1.616" ry="1.616" transform="translate(0 11.137)" fill="#1a1a1a" stroke="#b49f68" stroke-miterlimit="10" stroke-width="1.282"/>
      </g>
      <g id="Group_5" data-name="Group 5" transform="translate(51.66 64.409)">
        <line id="Line_7" data-name="Line 7" y1="13.277" x2="9.646" transform="translate(4.145 0.163)" fill="none" stroke="#b49f68" stroke-miterlimit="10" stroke-width="1.282"/>
        <line id="Line_8" data-name="Line 8" y1="15.776" x2="4.523" transform="translate(9.499 0.251)" fill="none" stroke="#b49f68" stroke-miterlimit="10" stroke-width="1.282"/>
        <line id="Line_9" data-name="Line 9" y1="9.177" x2="13.606" fill="none" stroke="#b49f68" stroke-miterlimit="10" stroke-width="1.282"/>
      </g>
      <g id="Group_6" data-name="Group 6" transform="translate(50.01 71.921)">
        <ellipse id="Ellipse_7" data-name="Ellipse 7" cx="1.616" cy="1.616" rx="1.616" ry="1.616" transform="translate(4.13 4.278)" fill="#1a1a1a" stroke="#b49f68" stroke-miterlimit="10" stroke-width="1.282"/>
        <ellipse id="Ellipse_8" data-name="Ellipse 8" cx="1.616" cy="1.616" rx="1.616" ry="1.616" fill="#1a1a1a" stroke="#b49f68" stroke-miterlimit="10" stroke-width="1.282"/>
        <ellipse id="Ellipse_9" data-name="Ellipse 9" cx="1.616" cy="1.616" rx="1.616" ry="1.616" transform="translate(9.474 6.883)" fill="#1a1a1a" stroke="#b49f68" stroke-miterlimit="10" stroke-width="1.282"/>
      </g>
      <g id="Group_7" data-name="Group 7" transform="translate(66.071 64.311)">
        <line id="Line_10" data-name="Line 10" x1="9.646" y1="13.277" transform="translate(0.213 0.191)" fill="none" stroke="#b49f68" stroke-miterlimit="10" stroke-width="1.282"/>
        <line id="Line_11" data-name="Line 11" x1="13.606" y1="9.177" transform="translate(0.368)" fill="none" stroke="#b49f68" stroke-miterlimit="10" stroke-width="1.282"/>
        <line id="Line_12" data-name="Line 12" x1="4.524" y1="15.775" transform="translate(0 0.318)" fill="none" stroke="#b49f68" stroke-miterlimit="10" stroke-width="1.282"/>
      </g>
      <g id="Group_8" data-name="Group 8" transform="translate(68.922 71.921)">
        <ellipse id="Ellipse_10" data-name="Ellipse 10" cx="1.616" cy="1.616" rx="1.616" ry="1.616" transform="translate(5.344 4.277)" fill="#1a1a1a" stroke="#b49f68" stroke-miterlimit="10" stroke-width="1.282"/>
        <path id="Path_2" data-name="Path 2" d="M113.888,163.942a1.617,1.617,0,1,1,2,1.108A1.616,1.616,0,0,1,113.888,163.942Z" transform="translate(-113.825 -154.996)" fill="#1a1a1a" stroke="#b49f68" stroke-miterlimit="10" stroke-width="1.282"/>
        <ellipse id="Ellipse_11" data-name="Ellipse 11" cx="1.616" cy="1.616" rx="1.616" ry="1.616" transform="translate(9.474)" fill="#1a1a1a" stroke="#b49f68" stroke-miterlimit="10" stroke-width="1.282"/>
      </g>
      <g id="Group_9" data-name="Group 9" transform="translate(66.342 53.377)">
        <line id="Line_13" data-name="Line 13" x1="15.609" y2="5.071" transform="translate(0.133 5.241)" fill="none" stroke="#b49f68" stroke-miterlimit="10" stroke-width="1.282"/>
        <line id="Line_14" data-name="Line 14" x1="12.932" y2="10.104" fill="none" stroke="#b49f68" stroke-miterlimit="10" stroke-width="1.282"/>
        <line id="Line_15" data-name="Line 15" x1="16.402" y1="0.573" transform="translate(0.188 10.553)" fill="none" stroke="#b49f68" stroke-miterlimit="10" stroke-width="1.282"/>
      </g>
      <g id="Group_10" data-name="Group 10" transform="translate(77.694 51.808)">
        <ellipse id="Ellipse_12" data-name="Ellipse 12" cx="1.616" cy="1.616" rx="1.616" ry="1.616" transform="translate(2.791 5.249)" fill="#1a1a1a" stroke="#b49f68" stroke-miterlimit="10" stroke-width="1.282"/>
        <path id="Path_3" data-name="Path 3" d="M160.244,107.691a1.616,1.616,0,1,1,1.672-1.559A1.616,1.616,0,0,1,160.244,107.691Z" transform="translate(-155.066 -93.322)" fill="#1a1a1a" stroke="#b49f68" stroke-miterlimit="10" stroke-width="1.282"/>
        <ellipse id="Ellipse_13" data-name="Ellipse 13" cx="1.616" cy="1.616" rx="1.616" ry="1.616" fill="#1a1a1a" stroke="#b49f68" stroke-miterlimit="10" stroke-width="1.282"/>
      </g>
      <g id="Group_11" data-name="Group 11" transform="translate(49.635 50.079)">
        <line id="Line_16" data-name="Line 16" x2="10.003" y2="13.768" transform="translate(6.182 0.117)" fill="none" stroke="#b49f68" stroke-miterlimit="10" stroke-width="1.282"/>
        <line id="Line_17" data-name="Line 17" y1="5.259" x2="16.185" transform="translate(0 13.885)" fill="none" stroke="#b49f68" stroke-miterlimit="10" stroke-width="1.282"/>
        <line id="Line_18" data-name="Line 18" y1="17.356" transform="translate(16.185 13.885)" fill="none" stroke="#b49f68" stroke-miterlimit="10" stroke-width="1.282"/>
        <line id="Line_19" data-name="Line 19" x1="16.429" y1="5.254" transform="translate(16.167 13.942)" fill="none" stroke="#b49f68" stroke-miterlimit="10" stroke-width="1.282"/>
        <line id="Line_20" data-name="Line 20" x1="9.994" y2="13.919" transform="translate(16.232)" fill="none" stroke="#b49f68" stroke-miterlimit="10" stroke-width="1.282"/>
      </g>
      <ellipse id="Ellipse_14" data-name="Ellipse 14" cx="5.47" cy="5.47" rx="5.47" ry="5.47" transform="translate(60.349 58.493)" fill="#1a1a1a" stroke="#b49f68" stroke-miterlimit="10" stroke-width="1.282"/>
      <path id="Path_4" data-name="Path 4" d="M58.592,27.1a10.554,10.554,0,0,0-16.31-5.218,10.547,10.547,0,1,0-20.005,0A10.547,10.547,0,1,0,16.1,40.907a10.547,10.547,0,1,0,16.18,11.75,10.547,10.547,0,1,0,16.179-11.75A10.554,10.554,0,0,0,58.592,27.1Z" transform="translate(33.54 28.316)" fill="none" stroke="#b49f68" stroke-miterlimit="10" stroke-width="1.71"/>
    </g>
    <path id="Path_13" data-name="Path 13" d="M2.24,0H8.4V-39.2H2.24ZM21.392-39.2H12.824V0H18.2V-27.72L22.792,0h5.824l4.256-28.112V0H38.7V-39.2H30.128l-4.2,27.832Zm30.856,0H43.176V0h6.16V-14.728h2.912c6.16,0,9.184-3.416,9.184-9.688v-5.1C61.432-35.784,58.408-39.2,52.248-39.2Zm0,5.6c1.96,0,3.024.9,3.024,3.7v5.88c0,2.8-1.064,3.7-3.024,3.7H49.336V-33.6Zm18.48,0h10.64v-5.6h-16.8V0h16.8V-5.6H70.728V-17.08h8.456v-5.6H70.728ZM104.328,0a11.544,11.544,0,0,1-.672-4.76v-6.048c0-4.088-1.008-7.056-4.088-8.344,2.744-1.288,4.032-3.92,4.032-7.952v-3.08c0-6.048-2.744-9.016-9.128-9.016h-9.3V0h6.16V-15.96h2.128c2.8,0,4.032,1.344,4.032,4.984v6.16c0,3.192.224,3.808.56,4.816ZM94.3-33.6c2.184,0,3.136,1.232,3.136,4.032V-25.7c0,3.136-1.4,4.144-3.7,4.144H91.336V-33.6ZM107.688,0h6.16V-39.2h-6.16Zm24.3-39.2h-9.016L116.7,0h5.656l1.064-7.112h7.56L132.048,0h6.216Zm-4.816,6.944,2.968,19.824h-5.936ZM141.12,0h16.3V-5.6H147.28V-39.2h-6.16Zm33.824-33.6H185.08v-5.6h-16.3V0h6.16V-16.184H182.9v-5.6h-7.952Zm26.04-5.6h-9.016L185.7,0h5.656l1.064-7.112h7.56L201.04,0h6.216Zm-4.816,6.944,2.968,19.824H193.2ZM218.624-39.2h-8.568V0h5.376V-27.72L220.024,0h5.824L230.1-28.112V0h5.824V-39.2H227.36l-4.2,27.832ZM240.408,0h6.16V-39.2h-6.16Zm10.64,0h16.3V-5.6H257.208V-39.2h-6.16Zm21.28,0h6.16V-12.992L286.272-39.2h-5.88l-4.7,17.864-4.7-17.864h-6.44l7.784,26.208Zm37.128-14.616v5.6c0,2.8-1.232,3.808-3.192,3.808s-3.192-1.008-3.192-3.808V-30.184c0-2.8,1.232-3.864,3.192-3.864s3.192,1.064,3.192,3.864v4.2h5.824v-3.808c0-6.272-3.136-9.856-9.184-9.856s-9.184,3.584-9.184,9.856V-9.408c0,6.272,3.136,9.856,9.184,9.856s9.184-3.584,9.184-9.856v-5.208Zm15.232-15.568c0-2.8,1.232-3.864,3.192-3.864s3.192,1.064,3.192,3.864V-9.016c0,2.8-1.232,3.864-3.192,3.864s-3.192-1.064-3.192-3.864Zm-6.16,20.776c0,6.272,3.3,9.856,9.352,9.856s9.352-3.584,9.352-9.856V-29.792c0-6.272-3.3-9.856-9.352-9.856s-9.352,3.584-9.352,9.856ZM349.72-39.2h-8.568V0h5.376V-27.72L351.12,0h5.824L361.2-28.112V0h5.824V-39.2h-8.568l-4.2,27.832Zm30.856,0H371.5V0h6.16V-14.728h2.912c6.16,0,9.184-3.416,9.184-9.688v-5.1C389.76-35.784,386.736-39.2,380.576-39.2Zm0,5.6c1.96,0,3.024.9,3.024,3.7v5.88c0,2.8-1.064,3.7-3.024,3.7h-2.912V-33.6Zm25.256-5.6h-9.016L390.544,0H396.2l1.064-7.112h7.56L405.888,0H412.1Zm-4.816,6.944,2.968,19.824h-5.936ZM428.12,0h6.328V-39.2H428.96v23.464L422.632-39.2H414.9V0h5.544V-28.392Zm10.752,0h6.16V-39.2h-6.16Zm16.8-33.6h10.64v-5.6h-16.8V0h16.8V-5.6h-10.64V-17.08h8.456v-5.6h-8.456Zm13.664,3.808c0,11.2,12.04,12.712,12.04,20.776,0,2.8-1.232,3.808-3.192,3.808s-3.192-1.008-3.192-3.808v-2.8h-5.824v2.408c0,6.272,3.136,9.856,9.184,9.856s9.184-3.584,9.184-9.856c0-11.2-12.04-12.712-12.04-20.776,0-2.8,1.12-3.864,3.08-3.864s3.08,1.064,3.08,3.864v1.624h5.824v-1.232c0-6.272-3.08-9.856-9.072-9.856S469.336-36.064,469.336-29.792Z" transform="translate(1382 93)" fill="#f7f7f7"/>
  </g>
</svg>
